<svg xmlns="http://www.w3.org/2000/svg" version="1.1" xmlns:xlink="http://www.w3.org/1999/xlink" width="1500" height="1500" viewBox="0 0 1500 1500"><rect width="1500" height="1500" x="0" y="0" id="background" stroke="transparent" fill="#000000"></rect><svg xml:space="preserve" width="1000" height="1000" data-version="2" data-id="lg_tUpuBTQv68IFpQVJfu" viewBox="0 0 513 360" x="250" y="250"><rect width="100%" height="100%" fill="transparent"></rect><path fill="#9c9c9c" d="M4.991 180.907c.521-38.525 4.689-75.168 16.628-110.595 5.615-16.643 12.837-32.548 24.038-46.282 5.37-6.57 11.433-12.417 19.176-16.223 14.4-7.076 29.928-4.471 42.432 6.889 9.146 8.307 16.064 18.22 21.737 29.089.564 1.07 1.042 2.17 1.65 3.213 2.46 4.254 6.251 4.544 9.146.535 6.888-9.523 14.674-18.22 23.907-25.5C179.38 9.703 196.933 2.597 217.208 3.93c17.584 1.158 32.693 8.423 46.18 19.465a117.223 117.223 0 0 1 16.918 17.265c3.285 4.066 5.79 4.255 9.523.463 13.647-13.85 29.248-24.675 47.7-31.13 27.207-9.536 54.024-8.277 80.16 3.72 28.944 13.285 49.378 35.587 64.632 62.997 14.11 25.326 21.882 52.605 24.588 81.433 4.095 43.735-3.112 85.342-24.024 124.141-14.761 27.367-35.05 49.654-63.56 63.113-33.75 15.933-67.18 14.24-99.843-3.676a124.46 124.46 0 0 1-29.045-22.49c-4.487-4.602-6.296-4.515-10.492.449-9.566 11.332-20.16 21.447-33.604 28.076-27.468 13.531-53.605 10.55-78.453-6.715-10.391-7.222-19.002-16.281-26.44-26.484q-1.042-1.476-2.215-2.851c-3.024-3.329-6.208-2.967-8.336 1.056-3.922 7.352-7.988 14.588-13.111 21.187-5.659 7.309-12.113 13.705-20.464 17.96-13.531 6.889-26.31 5.167-38.437-3.357-11.245-7.902-18.814-18.886-25.138-30.797-12.634-23.806-19.378-49.494-23.763-75.905-3.416-20.609-4.602-41.405-4.993-60.928Z"></path><path fill="#000000" d="M89.026 257.54v.65h-19.85v-.65l6.65-.81-7.62-20.73h-19.6l-6.72 17.9q-.33.89-.33 1.46 0 .89.53 1.25.53.37 1.9.53l4.94.4v.65h-17.25v-.65l4.54-.4q2.02-.16 2.87-.81.85-.65 1.5-2.43l19.85-52.89h1.45l20.42 55.72Zm-21.3-22.84-9.08-24.7h-.32l-9.23 24.7Z"></path><rect width="57.35" height="57.18" x="-28.68" y="-28.59" fill="none" rx="0" ry="0" transform="translate(60.85 230.1)"></rect><path fill="#000000" d="M114.786 222.47q-1.62 0-2.35 3.32 2.1 1.62 3.24 3.93 1.13 2.31 1.13 5.14 0 4.38-2.63 7.5-2.63 3.11-7.01 4.01-.97.24-1.94.24-4.21.73-6.52 2.02-2.31 1.3-2.31 2.92 0 1.13.73 1.9t2.75 1.46q2.03.69 6.08 1.42 6.88 1.29 9.8 3.64 2.91 2.35 2.91 6.65 0 3.24-2.1 5.87-2.11 2.63-5.83 4.13-3.73 1.5-8.35 1.5-6.72 0-10.41-2.39-3.68-2.39-3.68-6.68 0-3 2.39-5.55t6.44-3.85q-2.84-1.13-4.09-2.55-1.26-1.42-1.26-3.36 0-2.27 2.72-4.13 2.71-1.87 7.81-3-5.02-.49-8.14-3.73-3.12-3.24-3.12-8.1 0-5.18 3.61-8.46 3.6-3.28 9.27-3.28 4.54 0 7.86 2.18 2.02-6.96 6.24-6.96 1.54 0 2.43.85.89.85.89 2.23 0 1.13-.81 1.94t-1.95.81q-.97 0-2.02-.89-.16-.08-.69-.41-.53-.32-1.09-.32m-10.86 23.41q3.08 0 4.98-3.08 1.91-3.08 1.91-7.94t-1.91-7.93q-1.9-3.08-4.98-3.08-3.08 0-4.98 3.08-1.9 3.07-1.9 7.93 0 4.86 1.9 7.94t4.98 3.08m10.05 23.17q0-3.08-2.19-4.74-2.19-1.66-8.26-2.88-3.4-.57-5.59-1.46-5.75 2.03-5.75 8.35 0 4.29 2.79 6.64 2.8 2.35 7.9 2.35 5.1 0 8.1-2.23t3-6.03"></path><rect width="33.05" height="59.86" x="-16.52" y="-29.93" fill="none" rx="0" ry="0" transform="translate(105.32 248.69)"></rect><path fill="#000000" d="M140.536 223.04q1.62 0 2.76 1.09 1.13 1.09 1.13 2.63 0 1.3-.89 2.19-.89.89-2.19.89-.81 0-1.33-.36-.53-.37-1.1-1.1-.56-.64-1.01-.97-.44-.32-1.09-.32-1.3 0-2.63 1.54-1.34 1.54-1.91 3.56v24.71l6.48.64v.65h-16.68v-.65l4.94-.64v-28.35l-4.78-1.79v-.56l9.15-3.16h.65v7.13q4.54-7.13 8.5-7.13"></path><rect width="22.35" height="35.15" x="-11.18" y="-17.57" fill="none" rx="0" ry="0" transform="translate(133.75 241.12)"></rect><path fill="#000000" d="M150.826 211.37q0-1.7 1.09-2.79 1.1-1.09 2.8-1.09 1.7 0 2.79 1.09 1.1 1.09 1.1 2.79t-1.1 2.8q-1.09 1.09-2.79 1.09t-2.8-1.09q-1.09-1.1-1.09-2.8m6.97 11.67h-.65l-9.4 3.16v.56l4.78 1.79v28.35l-4.94.64v.65h15.15v-.65l-4.94-.64Z"></path><rect width="15.15" height="50.7" x="-7.58" y="-25.35" fill="none" rx="0" ry="0" transform="translate(155.66 233.34)"></rect><path fill="#000000" d="M175.776 257.54q3.32 1.46 6.64 1.46 4.78 0 8.59-2.43 3.8-2.43 5.91-6.72 2.11-4.29 2.11-9.8 0-4.86-1.62-8.75-1.62-3.89-4.54-6.08-2.92-2.18-6.48-2.18-3.16 0-5.95 1.54-2.8 1.54-4.58 4.21h-.32v-5.75h-.65l-9.15 3.16v.56l4.77 1.79v47.3l-4.94.65v.65h17.5v-.57l-7.29-.89zm7.21.65q-2.92 0-5.06-1.7-2.15-1.7-2.15-4.05v-22.11q.97-2.27 3-3.57 2.02-1.29 4.53-1.29 4.46 0 7.13 4.29t2.67 11.42q0 4.86-1.29 8.75-1.3 3.89-3.61 6.07-2.31 2.19-5.22 2.19"></path><rect width="33.46" height="54.11" x="-16.73" y="-27.05" fill="none" rx="0" ry="0" transform="translate(182.8 250.6)"></rect><path fill="#000000" d="M212.876 258.76q-3.08 0-5.07-2.15-1.98-2.14-1.98-5.55 0-4.05 3.69-6.48 3.68-2.43 12.51-4.21V233q0-4.7-1.05-6.52-1.06-1.82-3.65-1.82-2.51 0-4.05 1.33-1.54 1.34-1.54 3.61l.08 2.19q0 2.02-.77 3.2-.76 1.17-2.14 1.17-1.22 0-1.99-.81t-.77-2.11q0-1.94 1.91-4.25 1.9-2.31 4.9-3.85 3.64-2.02 7.53-2.02 2.27 0 3.85.89t2.31 2.51q.4 1.05.52 2.59.13 1.54.13 5.92v15.47q0 2.91.56 4.01.57 1.09 2.03 1.09 2.18 0 3.24-1.54l.32.16q-.97 2.03-2.59 3.12-1.62 1.09-3.48 1.09-2.11 0-3.49-1.25-1.37-1.26-1.54-3.36l-.24-.08q-1.86 2.35-4.29 3.68-2.43 1.34-4.94 1.34m3.48-3.08q1.7 0 3.2-.77 1.5-.77 2.47-2.23v-11.42q-4.21 1.06-6.52 2.11-2.31 1.05-3.28 2.51-.97 1.46-.97 3.64 0 2.84 1.37 4.5 1.38 1.66 3.73 1.66"></path><rect width="27.62" height="35.64" x="-13.81" y="-17.82" fill="none" rx="0" ry="0" transform="translate(220.14 241.44)"></rect><path fill="#000000" d="M245.676 199.79h-.65l-9.39 3.16v.57l4.78 1.78v51.6l-4.94.64v.65h15.14v-.65l-4.94-.64Z"></path><rect width="15.14" height="58.4" x="-7.57" y="-29.2" fill="none" rx="0" ry="0" transform="translate(243.55 229.49)"></rect><path fill="#000000" d="m485.274 222.675-59.515-37.958-10.477-6.609a28.207 28.207 0 0 1-4.554-7.333q-1.208-3.063-2.216-6.448a92.678 92.678 0 0 0-2.417-6.77 112.826 112.826 0 0 0-9.873-18.938l-.362-.524c.886-3.223.725-5.963 3.183-9.227 2.82-3.667 16.32-13.7 16.52-28.328.243-14.667 1.814-26.312-16.319-42.31-13.297-11.645-24.54-16.964-43.518-23.491-17.488-6.045-21.76-15.312-24.5-21.68-2.74-6.366-4.11-1.933-2.82 4.03 1.29 5.964 2.74 24.701-.323 34.17-3.062 9.47-8.784 27.28-8.462 33.123.323 5.843 2.78 6.165 2.378 10.195-.403 4.03 3.223 10.88 4.19 13.096 1.008 2.216 10.235 20.268 21.639 22.565 11.403 2.377 10.154 5.238 15.433 6.084 5.279.887 11.403-2.176 15.997-2.337 3.385-.12 9.792 1.29 13.499 3.224a72.531 72.531 0 0 1 4.835 8.744 108.797 108.797 0 0 1 7.173 19.422q.806 3.385 2.015 6.93l.16.484-40.738-25.91q-29.818-18.857-59.556-37.917l-3.666-2.418-1.854-1.209-1.733-1.168a40.295 40.295 0 0 0-3.143-3.667q-1.773-1.853-3.223-3.626a24.177 24.177 0 0 1-3.103-4.957l-.282-.604-.403-.725a16.118 16.118 0 0 0-1.733-2.418 28.207 28.207 0 0 0-4.07-3.586q-2.135-1.572-4.351-2.902-2.982-1.813-6.125-3.425a16.118 16.118 0 0 0-1.733-4.835c-1.934-3.506-.846-6.165-.886-11.041-.04-4.876-3.707-14.91-6.165-19.301a68.502 68.502 0 0 0-14.628-16.118 92.678 92.678 0 0 0-22-9.188c-7.536-1.652-16.119-.967-22.042 1.451a36.265 36.265 0 0 1-13.015 3.506c-5.52.564-8.18 4.674-13.418 5.278-5.239.605-14.184 2.821-20.55-2.417-6.448-5.239-7.254-1.975-5.199-.323 2.015 1.612 10.88 12.25 13.78 14.829 2.902 2.579 8.624 8.744 9.51 14.305.887 5.56 5.642 13.136 10.074 20.55a52.384 52.384 0 0 0 15.796 16.642c6.447 4.634 17.65 5.279 19.26 3.868 1.613-1.41 5.602-1.813 8.946-1.612 3.345.202 8.583-.725 12.089-3.546 3.506-2.82 6.85-2.337 11.927-6.044 4.03-2.82 10.598-4.03 15.191-4.23a84.62 84.62 0 0 1 11.243 7.454q1.894 1.571 3.344 3.304.726.927 1.21 1.773l.926 2.216a28.207 28.207 0 0 0 4.513 7.092l-1.45-.161-8.866-.806q-4.432-.242-8.663-.766l-1.048-.12-.564-.121h-.242l-.403-.08q-1.49-.082-2.7.08-2.417.403-4.633 1.007-4.433 1.29-8.502 3.022a161.18 161.18 0 0 0-15.393 7.173 12.089 12.089 0 0 1-2.498-.967c-3.828-1.894-12.411-10.235-31.511-13.378-19.1-3.143-34.291 5.44-40.295 11.564-6.004 6.125-21.276 31.833-25.789 38.684-4.513 6.85-15.433 5.238-13.982 6.97 1.45 1.733 4.19 2.096 8.421 3.184 4.231 1.048 7.656-2.176 11.968-2.418 4.271-.282 10.88 1.128 16.037 2.136 5.158 1.007 14.426 5.802 28.046 8.14 13.62 2.336 26.473-7.858 29.939-10.76 3.465-2.9 7.938-9.469 9.268-11.363 1.249-1.893 5.117-7.897 6.608-15.15 1.25-6.045 3.063-10.195 5.52-14.184a241.77 241.77 0 0 1 15.03-6.045q4.11-1.49 8.22-2.538a28.207 28.207 0 0 1 4.03-.725h1.814l.282.08.523.121 1.169.201q4.473.605 8.865 1.048 4.432.403 8.704.967a72.531 72.531 0 0 1 6.124 1.088l.685.282.081.04.363.283q.967.765 1.894 1.33l1.813 1.248 3.707 2.458q29.415 19.544 58.952 38.885l4.11 2.7a68.502 68.502 0 0 0-7.455-.121l-3.143.322-12.048 1.773-6.85 1.008a16.118 16.118 0 0 1-3.627-2.418c-3.344-3.022-8.865-14.587-11.887-21.598-3.062-6.971-14.909-12.492-22.807-13.378-7.898-.927-21.92-.282-28.287 2.136-6.447 2.417-16.44 5.157-28.327 18.858-11.887 13.7-17.932 17.649-25.547 21.598-7.616 3.949-24.339 3.989-18.536 6.73 5.802 2.74 20.671 4.834 24.943 6.366 4.23 1.53 8.461 4.553 18.858 11.887 10.355 7.253 16.722 14.909 26.755 19.462 10.034 4.554 17.972 0 21.317 1.45 3.344 1.411 13.095.968 21.8-4.512 8.743-5.44 15.03-21.276 16.238-27.078 1.209-5.803 8.825-14.587 10.96-17.166l5.36-.484q6.044-.604 12.088-1.007c3.828-.363 7.696 0 11.605.645q4.23.725 8.3 1.853l45.333 29.536 9.872 6.448q-4.19.12-8.1.846l-4.351.886-1.088.242-.564.121-.605.161q-1.088.282-2.176.685-4.19 1.491-8.26 3.143l-8.06 3.425-4.029 1.773c-1.45-4.07-15.634-8.663-17.044-10.396-1.41-1.733-9.107-3.949-12.008-6.286-2.902-2.297-16.924-1.33-21.196-1.974-4.311-.605-10.88 1.934-19.825 8.059-8.985 6.165-21.678 25.466-24.781 36.547-3.063 11.041-5.762 25.507-4.876 36.024.887 10.517-.403 20.147-3.425 23.855-3.022 3.747-14.224 10.88-14.264 11.846-.04.967 6.044 1.088 9.832-1.007a153.121 153.121 0 0 1 18.938-6.85c3.506-1.048 7.818-.403 11.525.403 3.747.806 11.242 1.41 16.803 2.015 5.56.564 11.685.967 16.44-.121 4.755-1.088 16.48-2.337 19.14-4.03 2.66-1.773 14.063-6.084 18.012-8.865 3.949-2.74 9.55-8.502 9.913-11.484.403-2.982 1.974-4.07 2.86-7.495.887-3.425 4.312-16.52 4.917-23.048.604-6.528-3.264-16.481-6.206-20.994a32.236 32.236 0 0 1-4.553-13.781l4.755-1.813 8.18-3.022a108.797 108.797 0 0 1 10.234-3.224l.484-.08.483-.081 1.088-.202 4.272-.644a48.354 48.354 0 0 1 8.381-.403q3.828.08 7.414 1.128l41.101 26.595h.08a3.909 3.909 0 0 0 5.36-1.169 4.03 4.03 0 0 0-1.209-5.4M295.888 108.036"></path></svg></svg>